# xmcd
#
# Track frame offsets:
#	150
#	20471
#	34411
#	47660
#	61162
#	74014
#	87037
#	99497
#	115986
#	131261
#	145333
#	167253
#	179314
#	195351
#
# Disc length: 2785 seconds
#
# Revision: 1
# Processed by: cddbd v1.5.2PL0 Copyright (c) Steve Scherf et al.
# Submitted via: audiograbber 1.83.01
#
DISCID=b70adf0e
DTITLE=MARTINHO DA VILA - POETA DA CIDADE-MARTINHO CANTA NOEL
DYEAR=2010
DGENRE=
TTITLE0=FILOSOFIA
TTITLE1=MINHA VIOLA
TTITLE2=E NÃO BRINCA NÃO
TTITLE3=RAPAZ FOLGADO
TTITLE4=SEJA BREVE
TTITLE5=COISAS NOSSAS
TTITLE6=FITA AMARELA
TTITLE7=TRÊS APITOS
TTITLE8=SÉCULO DO PROGRESSO
TTITLE9=QUANDO O SAMBA ACABOU
TTITLE10=ÚLTIMO DESEJO
TTITLE11=O X DO PRBLEMA
TTITLE12=EU VOU PRA VILA
TTITLE13=CIDADE MULHER
EXTD=
EXTT0=
EXTT1=
EXTT2=
EXTT3=
EXTT4=
EXTT5=
EXTT6=
EXTT7=
EXTT8=
EXTT9=
EXTT10=
EXTT11=
EXTT12=
EXTT13=
PLAYORDER=
